<svg xmlns="http://www.w3.org/2000/svg" xmlns:xlink="http://www.w3.org/1999/xlink" version="1.1" id="Layer_1" x="0px" y="0px" width="100px" height="95.435px" viewBox="0 0 100 95.435" enable-background="new 0 0 100 95.435" xml:space="preserve">
<g>
	<path fill="#000000" d="M97.718,43.941H86.304v-2.283h-4.565H58.912h-2.283h-2.282v6.848c0,3.482,1.602,6.565,4.067,8.66   c-1.013,0.234-1.785,1.098-1.785,2.183v7.284H37.608V59.35c0-1.261-1.021-2.284-2.283-2.284h-0.383   c2.108-2.072,3.425-4.948,3.425-8.131V37.521c0-5.692-4.202-10.384-9.661-11.236c0.34-0.405,0.532-0.851,0.532-1.318   c0-1.892-3.065-3.424-6.848-3.424c-3.785,0-6.848,1.533-6.848,3.424c0,0.467,0.189,0.913,0.53,1.318   c-5.458,0.852-9.66,5.544-9.66,11.236v11.414c0,3.217,1.351,6.118,3.5,8.194c-1.111,0.153-1.979,1.068-1.979,2.221v7.284H4.129H0   v4.128v20.546v4.127h4.129h89.023h4.129v-4.127V70.762v-4.128h-4.129h-6.849V59.35c0-1.261-1.021-2.284-2.282-2.284h-1.664   c2.399-2.094,3.946-5.134,3.946-8.559h11.414c1.261,0,2.282-1.023,2.282-2.283C100,44.965,98.979,43.941,97.718,43.941z    M58.912,46.224h22.826v2.283c0,3.776-3.071,6.848-6.848,6.848H65.76c-3.776,0-6.848-3.071-6.848-6.848V46.224z M70.325,66.634   v-5.003h2.282v5.003H70.325z M61.194,61.631h4.565v5.003h-4.565V61.631z M28.477,66.634v-5.003h4.565v5.003H28.477z M23.912,61.631   v5.003h-2.283v-5.003H23.912z M17.825,30.673h9.129c2.972,0,5.482,1.915,6.427,4.565H11.398   C12.343,32.587,14.854,30.673,17.825,30.673z M10.978,39.804h22.825v9.131c0,3.775-3.07,6.848-6.848,6.848h-9.129   c-3.776,0-6.848-3.072-6.848-6.848V39.804z M12.499,61.631h4.565v5.003h-4.565V61.631z M93.152,91.308H4.129V70.762h89.023V91.308z    M77.173,66.634v-5.003h4.565v5.003H77.173z"/>
	<path fill="#000000" d="M61.756,32.626c-0.892,0.891-0.892,2.335,0,3.228c0.447,0.446,1.029,0.669,1.615,0.669   c0.582,0,1.167-0.223,1.614-0.669c2.914-2.916,2.702-6.611-0.572-9.885c-0.361-0.365-0.97-1.068-0.937-1.674   c0.032-0.523,0.528-1.03,0.702-1.171c0.994-0.753,1.2-2.167,0.458-3.173c-0.745-1.016-2.181-1.229-3.189-0.483   c-0.238,0.174-2.318,1.78-2.519,4.466c-0.098,1.274,0.215,3.22,2.257,5.262C63.186,31.197,62.426,31.956,61.756,32.626z"/>
	<path fill="#000000" d="M74.185,32.626c-0.892,0.891-0.892,2.335,0,3.228c0.446,0.446,1.029,0.669,1.614,0.669   c0.583,0,1.168-0.223,1.612-0.669c2.917-2.916,2.702-6.611-0.57-9.885c-0.363-0.365-0.972-1.068-0.936-1.674   c0.032-0.523,0.525-1.03,0.702-1.171c0.991-0.753,1.199-2.167,0.457-3.173c-0.744-1.016-2.181-1.229-3.19-0.483   c-0.238,0.174-2.317,1.78-2.52,4.466c-0.098,1.274,0.217,3.22,2.26,5.262C75.613,31.197,74.853,31.956,74.185,32.626z"/>
	<path fill="#000000" d="M13.822,13.604c-0.892,0.892-0.892,2.336,0,3.228c0.444,0.446,1.029,0.669,1.612,0.669   c0.585,0,1.168-0.223,1.615-0.669c2.915-2.916,2.702-6.61-0.57-9.885c-0.364-0.365-0.972-1.068-0.936-1.674   c0.03-0.522,0.526-1.029,0.702-1.17c0.992-0.753,1.198-2.167,0.456-3.173c-0.745-1.017-2.179-1.229-3.189-0.484   c-0.238,0.175-2.319,1.779-2.519,4.467c-0.098,1.273,0.217,3.22,2.257,5.262C15.249,12.175,14.49,12.934,13.822,13.604z"/>
	<path fill="#000000" d="M26.248,13.604c-0.891,0.892-0.891,2.336,0,3.228c0.447,0.446,1.03,0.669,1.615,0.669   s1.168-0.223,1.615-0.669c2.915-2.916,2.702-6.61-0.572-9.885c-0.362-0.365-0.972-1.068-0.936-1.674   C28,4.75,28.497,4.243,28.671,4.102c0.993-0.753,1.2-2.167,0.458-3.173c-0.745-1.017-2.181-1.229-3.189-0.484   c-0.238,0.175-2.319,1.779-2.519,4.467c-0.098,1.273,0.215,3.22,2.257,5.262C27.677,12.175,26.918,12.934,26.248,13.604z"/>
	<path fill="#000000" d="M16.683,73.046c-4.404,0-7.988,3.583-7.988,7.988c0,4.406,3.584,7.988,7.988,7.988   c4.406,0,7.99-3.582,7.99-7.988C24.673,76.629,21.089,73.046,16.683,73.046z M16.683,84.457c-1.889,0-3.423-1.531-3.423-3.423   c0-1.891,1.534-3.423,3.423-3.423c1.891,0,3.425,1.532,3.425,3.423C20.108,82.926,18.574,84.457,16.683,84.457z"/>
	<path fill="#000000" d="M32.662,73.046c-4.406,0-7.988,3.583-7.988,7.988c0,4.406,3.583,7.988,7.988,7.988s7.988-3.582,7.988-7.988   C40.65,76.629,37.067,73.046,32.662,73.046z M32.662,84.457c-1.891,0-3.423-1.531-3.423-3.423c0-1.891,1.532-3.423,3.423-3.423   c1.892,0,3.423,1.532,3.423,3.423C36.085,82.926,34.553,84.457,32.662,84.457z"/>
	<path fill="#000000" d="M64.619,73.046c-4.405,0-7.99,3.583-7.99,7.988c0,4.406,3.585,7.988,7.99,7.988   c4.404,0,7.988-3.582,7.988-7.988C72.607,76.629,69.023,73.046,64.619,73.046z M64.619,84.457c-1.891,0-3.425-1.531-3.425-3.423   c0-1.891,1.534-3.423,3.425-3.423c1.89,0,3.423,1.532,3.423,3.423C68.042,82.926,66.509,84.457,64.619,84.457z"/>
	<path fill="#000000" d="M72.607,81.034c0,4.406,3.585,7.988,7.991,7.988c4.403,0,7.988-3.582,7.988-7.988   c0-4.405-3.585-7.988-7.988-7.988C76.192,73.046,72.607,76.629,72.607,81.034z M84.021,81.034c0,1.892-1.534,3.423-3.423,3.423   c-1.892,0-3.426-1.531-3.426-3.423c0-1.891,1.534-3.423,3.426-3.423C82.487,77.611,84.021,79.144,84.021,81.034z"/>
</g>
</svg>