<svg xmlns="http://www.w3.org/2000/svg" xmlns:xlink="http://www.w3.org/1999/xlink" version="1.1" id="Your_Icon" x="0px" y="0px" width="100px" height="100px" viewBox="0 0 100 100" enable-background="new 0 0 100 100" xml:space="preserve">
<path d="M99.474,56.936C97.956,81.244,75.806,100,50.509,100C22.904,100,0.526,77.624,0.526,50.019C0.526,22.378,22.904,0,50.509,0  c14.305,0,27.172,6.018,36.215,15.64l7.748-7.75l1.189,29.874L65.786,36.54l7.787-7.785c-5.695-6.232-13.912-10.124-23.064-10.124  c-17.334,0-31.352,14.055-31.352,31.388c0,17.332,14.018,31.387,31.352,31.387c14.99,0,27.459-10.486,30.631-24.47H99.474z"/>
</svg>