<svg xmlns="http://www.w3.org/2000/svg" xmlns:xlink="http://www.w3.org/1999/xlink" version="1.1" id="Date_and_Time" x="0px" y="0px" width="100px" height="100px" viewBox="0 0 100 100" enable-background="new 0 0 100 100" xml:space="preserve">
<g id="Icon">
	<path id="Watch" fill="#000000" d="M75.818,100c-12.084,0-21.914-9.83-21.914-21.914s9.83-21.915,21.914-21.915   s21.915,9.831,21.915,21.915S87.902,100,75.818,100z M75.818,59.697c-10.139,0-18.388,8.249-18.388,18.389   c0,10.139,8.249,18.388,18.388,18.388c10.14,0,18.389-8.249,18.389-18.388C94.207,67.946,85.958,59.697,75.818,59.697z"/>
	<path id="Hands" fill="#000000" d="M85.437,68.484c-0.394-0.394-1.031-0.394-1.425,0l-6.893,6.893c-0.82-0.391-1.777-0.389-2.598,0   l-9.39-9.39c-0.394-0.394-1.031-0.394-1.425,0s-0.394,1.031,0,1.425l9.394,9.395c-0.535,1.123-0.35,2.504,0.58,3.434   c1.181,1.18,3.095,1.18,4.275,0c0.93-0.931,1.123-2.314,0.588-3.438l6.893-6.893C85.83,69.516,85.83,68.878,85.437,68.484z"/>
	<rect id="Day_2_" x="27.456" y="50.378" fill="#000000" width="12.09" height="11.587"/>
	<rect id="Day_1_" x="39.546" y="38.791" fill="#000000" width="12.092" height="11.587"/>
	<rect id="Day" x="15.365" y="38.791" fill="#000000" width="12.091" height="11.587"/>
	<path id="Frame" fill="#000000" d="M79.849,8.564H65.743V3.019C65.743,1.352,64.392,0,62.725,0h-0.008   c-1.668,0-3.02,1.352-3.02,3.019v5.546H30.479V3.019C30.479,1.352,29.127,0,27.46,0h-0.009c-1.667,0-3.019,1.352-3.019,3.019v5.546   H11.839c-5.278,0-9.572,4.294-9.572,9.572v62.972c0,5.277,4.294,9.571,9.572,9.571h41.599c-0.724-1.279-1.341-2.626-1.839-4.03   h-39.76c-3.056,0-5.542-2.485-5.542-5.541V30.227h79.094V54.25c1.409,0.567,2.757,1.256,4.03,2.054V18.137   C89.421,14.275,86.378,8.564,79.849,8.564z M85.391,26.196H6.297v-8.06c0-3.057,2.486-5.543,5.542-5.543h12.594v6.05   c0,1.667,1.352,3.019,3.019,3.019h0.009c1.667,0,3.019-1.352,3.019-3.019v-6.05h29.219v6.05c0,1.667,1.352,3.019,3.02,3.019h0.008   c1.667,0,3.019-1.352,3.019-3.019v-6.05h14.105c4.146,0,5.542,3.807,5.542,5.543V26.196z"/>
</g>
</svg>