<svg xmlns="http://www.w3.org/2000/svg" xmlns:xlink="http://www.w3.org/1999/xlink" version="1.1" id="Your_Icon" x="0px" y="0px" width="48px" height="48px" viewBox="17 176.375 48 48" enable-background="new 17 176.375 48 48" xml:space="preserve">
<path fill="#000000" d="M41,176.375c-13.255,0-24,10.745-24,24s10.745,24,24,24s24-10.745,24-24S54.255,176.375,41,176.375z   M52,199.539h-7.25v11.006c0,2.199-1.688,4-3.75,4c-2.062,0-3.75-1.801-3.75-4v-11.006h-7.251c-2.199,0-2.727-1.271-1.171-2.827  l9.343-9.34c1.556-1.556,4.103-1.556,5.657,0l9.343,9.34C54.727,198.268,54.2,199.539,52,199.539z"/>
</svg>